<?xml version="1.0" encoding="utf-8"?>
<!-- Generator: Adobe Illustrator 25.0.1, SVG Export Plug-In . SVG Version: 6.00 Build 0)  -->
<svg version="1.0" id="katman_1" xmlns="http://www.w3.org/2000/svg" xmlns:xlink="http://www.w3.org/1999/xlink" x="0px" y="0px"
	 viewBox="0 0 1364.7 1002" style="enable-background:new 0 0 1364.7 1002;" xml:space="preserve">
<style type="text/css">
	.st0{fill:#3DDC84;}
</style>
<g id="XMLID_1_">
	<path class="st0" d="M1141.7,758.6H223.1c14.7-155.7,103.7-288.7,235.1-359.9l-76.2-132c-4.3-7.4-1.8-16.8,5.6-21.1
		c7.4-4.3,16.8-1.8,21.1,5.6l77.2,133.7C544.8,358,611.1,343,682.4,343s137.6,15,196.5,41.9l77.2-133.7c4.2-7.4,13.7-9.9,21-5.6
		c7.3,4.3,9.9,13.7,5.6,21.1l-76.2,132C1038,469.9,1127,602.9,1141.7,758.6L1141.7,758.6z M893.2,629.6c21.3,0,38.6-17.3,38.5-38.5
		c0-21.2-17.2-38.5-38.5-38.5c-21.2,0-38.5,17.2-38.5,38.5C854.7,612.3,871.9,629.6,893.2,629.6z M471.5,629.6
		c21.3,0,38.6-17.3,38.5-38.5c0-21.2-17.2-38.5-38.5-38.5c-21.2,0-38.5,17.2-38.5,38.5C433,612.3,450.2,629.6,471.5,629.6z"/>
</g>
</svg>
